<svg data-v-423bf9ae="" xmlns="http://www.w3.org/2000/svg" viewBox="0 0 51.96360613229176 60" class="icon"><!----><!----><!----><!----><g data-v-423bf9ae="" id="3b071af7-9668-4e9c-a2f9-c92987b82c19" transform="matrix(0.9476875809415057,0,0,0.9476875809415057,-21.365615756731984,-17.384380854645897)" stroke="none" fill="white"><path d="M49.961 81.656l27.416-15.828V34.171L49.961 18.344 22.545 34.171v31.657l27.416 15.828zM27.429 64.029l9.886-5.582 12.653 7.304 12.627-7.288 9.771 5.641-22.405 12.933-22.532-13.008zM49.968 37.71l9.762 5.637-9.625 5.54-9.749-5.626 9.612-5.551zm-10.643 7.266l9.636 5.562v11.169l-9.636-5.562V44.976zm11.636 5.725l9.649-5.553v10.995l-9.649 5.57V50.701zm22.416 11.676l-9.767-5.639V42.123l-12.566-7.256V23.588L73.377 36.48v25.897zM49.045 23.492v11.286l-12.72 7.345v14.585l-9.78 5.522V36.48l22.5-12.988z"></path></g><!----></svg>