<svg data-v-423bf9ae="" xmlns="http://www.w3.org/2000/svg" viewBox="0 0 461 90" class="iconLeft"><!----><!----><!----><g data-v-423bf9ae="" id="3044b34f-f4e6-4162-bf71-3d6367c42551" fill="#012F41" transform="matrix(5.911329716010838,0,0,5.911329716010838,93.2163414627164,11.866996134894492)"><path d="M5.53 0.53L5.53 0.53L5.53 0.53Q6.38 0.53 7.06 0.67L7.06 0.67L7.06 0.67Q7.74 0.81 8.02 0.91L8.02 0.91L8.02 1.72L8.02 1.72Q7.32 1.54 6.59 1.46L6.59 1.46L6.59 1.46Q5.85 1.37 5.15 1.44L5.15 1.44L5.15 1.44Q4.45 1.50 3.84 1.74L3.84 1.74L3.84 1.74Q3.23 1.99 2.77 2.48L2.77 2.48L2.77 2.48Q2.31 2.97 2.04 3.74L2.04 3.74L2.04 3.74Q1.78 4.51 1.78 5.61L1.78 5.61L1.78 5.61Q1.78 6.72 2.04 7.49L2.04 7.49L2.04 7.49Q2.31 8.26 2.77 8.75L2.77 8.75L2.77 8.75Q3.22 9.24 3.83 9.49L3.83 9.49L3.83 9.49Q4.44 9.74 5.13 9.81L5.13 9.81L5.13 9.81Q5.82 9.87 6.57 9.77L6.57 9.77L6.57 9.77Q7.31 9.67 8.02 9.49L8.02 9.49L8.02 10.28L8.02 10.28Q7.62 10.40 7.18 10.49L7.18 10.49L7.18 10.49Q6.82 10.56 6.38 10.62L6.38 10.62L6.38 10.62Q5.94 10.68 5.53 10.68L5.53 10.68L5.53 10.68Q4.82 10.68 3.99 10.47L3.99 10.47L3.99 10.47Q3.16 10.26 2.45 9.70L2.45 9.70L2.45 9.70Q1.74 9.13 1.27 8.14L1.27 8.14L1.27 8.14Q0.80 7.15 0.80 5.61L0.80 5.61L0.80 5.61Q0.80 4.07 1.27 3.09L1.27 3.09L1.27 3.09Q1.74 2.10 2.45 1.53L2.45 1.53L2.45 1.53Q3.16 0.97 3.99 0.75L3.99 0.75L3.99 0.75Q4.82 0.53 5.53 0.53ZM13.27 3.19L13.27 3.19L13.27 3.19Q13.76 3.19 14.35 3.35L14.35 3.35L14.35 3.35Q14.94 3.51 15.44 3.94L15.44 3.94L15.44 3.94Q15.95 4.37 16.28 5.10L16.28 5.10L16.28 5.10Q16.62 5.82 16.62 6.96L16.62 6.96L16.62 6.96Q16.62 8.09 16.28 8.81L16.28 8.81L16.28 8.81Q15.95 9.53 15.44 9.95L15.44 9.95L15.44 9.95Q14.94 10.36 14.35 10.52L14.35 10.52L14.35 10.52Q13.76 10.68 13.27 10.68L13.27 10.68L13.27 10.68Q12.78 10.68 12.20 10.52L12.20 10.52L12.20 10.52Q11.62 10.36 11.12 9.95L11.12 9.95L11.12 9.95Q10.63 9.53 10.29 8.81L10.29 8.81L10.29 8.81Q9.95 8.09 9.95 6.96L9.95 6.96L9.95 6.96Q9.95 5.82 10.29 5.10L10.29 5.10L10.29 5.10Q10.63 4.37 11.12 3.94L11.12 3.94L11.12 3.94Q11.62 3.51 12.20 3.35L12.20 3.35L12.20 3.35Q12.78 3.19 13.27 3.19ZM13.27 9.93L13.27 9.93L13.27 9.93Q14.46 9.91 15.05 9.11L15.05 9.11L15.05 9.11Q15.64 8.32 15.64 6.96L15.64 6.96L15.64 6.96Q15.64 6.29 15.49 5.73L15.49 5.73L15.49 5.73Q15.34 5.18 15.04 4.78L15.04 4.78L15.04 4.78Q14.74 4.38 14.30 4.17L14.30 4.17L14.30 4.17Q13.86 3.95 13.27 3.95L13.27 3.95L13.27 3.95Q12.68 3.95 12.24 4.17L12.24 4.17L12.24 4.17Q11.80 4.38 11.51 4.78L11.51 4.78L11.51 4.78Q11.21 5.18 11.07 5.73L11.07 5.73L11.07 5.73Q10.92 6.29 10.92 6.96L10.92 6.96L10.92 6.96Q10.92 7.63 11.07 8.18L11.07 8.18L11.07 8.18Q11.21 8.74 11.51 9.12L11.51 9.12L11.51 9.12Q11.80 9.51 12.24 9.72L12.24 9.72L12.24 9.72Q12.68 9.93 13.27 9.93ZM21.53 3.29L21.53 4.20L21.53 4.20Q21.39 4.19 21.27 4.16L21.27 4.16L21.27 4.16Q21.15 4.14 21.05 4.13L21.05 4.13L21.05 4.13Q20.94 4.12 20.90 4.12L20.90 4.12L20.90 4.12Q20.36 4.12 20.01 4.40L20.01 4.40L20.01 4.40Q19.67 4.68 19.47 5.10L19.47 5.10L19.47 5.10Q19.26 5.53 19.19 6.03L19.19 6.03L19.19 6.03Q19.11 6.54 19.11 6.99L19.11 6.99L19.11 10.50L18.23 10.50L18.23 3.36L18.91 3.36L19.07 4.75L19.07 4.75Q19.22 4.40 19.41 4.06L19.41 4.06L19.41 4.06Q19.60 3.72 19.88 3.51L19.88 3.51L19.88 3.51Q20.16 3.29 20.56 3.21L20.56 3.21L20.56 3.21Q20.96 3.14 21.53 3.29L21.53 3.29ZM28.29 7.18L23.37 7.18L23.37 7.18Q23.35 7.95 23.60 8.55L23.60 8.55L23.60 8.55Q23.70 8.81 23.88 9.06L23.88 9.06L23.88 9.06Q24.05 9.31 24.30 9.50L24.30 9.50L24.30 9.50Q24.56 9.69 24.91 9.81L24.91 9.81L24.91 9.81Q25.27 9.93 25.75 9.93L25.75 9.93L25.75 9.93Q26.15 9.93 26.52 9.82L26.52 9.82L26.52 9.82Q26.88 9.72 27.16 9.59L27.16 9.59L27.16 9.59Q27.50 9.44 27.79 9.24L27.79 9.24L27.80 10.14L27.80 10.14Q27.80 10.14 27.65 10.23L27.65 10.23L27.65 10.23Q27.50 10.32 27.24 10.42L27.24 10.42L27.24 10.42Q26.98 10.51 26.62 10.60L26.62 10.60L26.62 10.60Q26.26 10.68 25.87 10.68L25.87 10.68L25.87 10.68Q24.74 10.68 24.05 10.32L24.05 10.32L24.05 10.32Q23.37 9.97 22.99 9.41L22.99 9.41L22.99 9.41Q22.61 8.85 22.49 8.15L22.49 8.15L22.49 8.15Q22.37 7.46 22.37 6.78L22.37 6.78L22.37 6.78Q22.37 6.13 22.57 5.49L22.57 5.49L22.57 5.49Q22.76 4.84 23.15 4.33L23.15 4.33L23.15 4.33Q23.53 3.82 24.11 3.51L24.11 3.51L24.11 3.51Q24.68 3.19 25.45 3.19L25.45 3.19L25.45 3.19Q26.31 3.19 26.86 3.54L26.86 3.54L26.86 3.54Q27.41 3.89 27.73 4.42L27.73 4.42L27.73 4.42Q28.04 4.96 28.17 5.59L28.17 5.59L28.17 5.59Q28.29 6.22 28.29 6.78L28.29 6.78L28.29 7.18ZM23.35 6.43L27.31 6.43L27.31 6.43Q27.31 5.96 27.21 5.52L27.21 5.52L27.21 5.52Q27.10 5.07 26.88 4.72L26.88 4.72L26.88 4.72Q26.66 4.37 26.30 4.16L26.30 4.16L26.30 4.16Q25.94 3.95 25.45 3.95L25.45 3.95L25.45 3.95Q24.96 3.95 24.58 4.17L24.58 4.17L24.58 4.17Q24.19 4.40 23.92 4.75L23.92 4.75L23.92 4.75Q23.65 5.10 23.50 5.54L23.50 5.54L23.50 5.54Q23.35 5.99 23.35 6.43L23.35 6.43ZM38.28 0.53L38.28 0.53L38.28 0.53Q39.13 0.53 39.81 0.67L39.81 0.67L39.81 0.67Q40.49 0.81 40.77 0.91L40.77 0.91L40.77 1.72L40.77 1.72Q40.07 1.54 39.33 1.46L39.33 1.46L39.33 1.46Q38.60 1.37 37.90 1.44L37.90 1.44L37.90 1.44Q37.20 1.50 36.59 1.74L36.59 1.74L36.59 1.74Q35.98 1.99 35.52 2.48L35.52 2.48L35.52 2.48Q35.06 2.97 34.79 3.74L34.79 3.74L34.79 3.74Q34.52 4.51 34.52 5.61L34.52 5.61L34.52 5.61Q34.52 6.72 34.79 7.49L34.79 7.49L34.79 7.49Q35.06 8.26 35.51 8.75L35.51 8.75L35.51 8.75Q35.97 9.24 36.58 9.49L36.58 9.49L36.58 9.49Q37.18 9.74 37.88 9.81L37.88 9.81L37.88 9.81Q38.57 9.87 39.31 9.77L39.31 9.77L39.31 9.77Q40.05 9.67 40.77 9.49L40.77 9.49L40.77 10.28L40.77 10.28Q40.36 10.40 39.93 10.49L39.93 10.49L39.93 10.49Q39.56 10.56 39.12 10.62L39.12 10.62L39.12 10.62Q38.68 10.68 38.28 10.68L38.28 10.68L38.28 10.68Q37.56 10.68 36.74 10.47L36.74 10.47L36.74 10.47Q35.91 10.26 35.20 9.70L35.20 9.70L35.20 9.70Q34.48 9.13 34.01 8.14L34.01 8.14L34.01 8.14Q33.54 7.15 33.54 5.61L33.54 5.61L33.54 5.61Q33.54 4.07 34.01 3.09L34.01 3.09L34.01 3.09Q34.48 2.10 35.20 1.53L35.20 1.53L35.20 1.53Q35.91 0.97 36.74 0.75L36.74 0.75L36.74 0.75Q37.56 0.53 38.28 0.53ZM43.34 0.71L44.83 0.71L48.44 9.27L51.94 0.71L53.42 0.71L51.94 0.71L53.42 0.71L53.42 10.50L52.47 10.50L52.47 1.69L52.47 1.69Q52.21 2.35 51.91 3.08L51.91 3.08L51.91 3.08Q51.66 3.71 51.34 4.49L51.34 4.49L51.34 4.49Q51.02 5.28 50.68 6.10L50.68 6.10L48.89 10.50L48.08 10.50L44.31 1.69L44.31 10.50L43.34 10.50L43.34 0.71ZM61.61 1.30L61.29 2.16L61.29 2.16Q60.76 1.81 60.12 1.60L60.12 1.60L60.12 1.60Q59.47 1.39 58.84 1.39L58.84 1.39L58.84 1.39Q57.93 1.39 57.35 1.77L57.35 1.77L57.35 1.77Q56.77 2.16 56.77 3.01L56.77 3.01L56.77 3.01Q56.77 3.46 56.97 3.78L56.97 3.78L56.97 3.78Q57.16 4.10 57.50 4.33L57.50 4.33L57.50 4.33Q57.83 4.56 58.26 4.74L58.26 4.74L58.26 4.74Q58.69 4.91 59.15 5.07L59.15 5.07L59.15 5.07Q59.67 5.24 60.19 5.45L60.19 5.45L60.19 5.45Q60.72 5.66 61.14 5.98L61.14 5.98L61.14 5.98Q61.56 6.30 61.82 6.78L61.82 6.78L61.82 6.78Q62.09 7.25 62.09 7.94L62.09 7.94L62.09 7.94Q62.09 8.65 61.81 9.17L61.81 9.17L61.81 9.17Q61.53 9.69 61.07 10.02L61.07 10.02L61.07 10.02Q60.61 10.36 60.01 10.52L60.01 10.52L60.01 10.52Q59.42 10.68 58.79 10.68L58.79 10.68L58.79 10.68Q57.86 10.68 56.97 10.36L56.97 10.36L56.97 10.36Q56.08 10.04 55.44 9.41L55.44 9.41L55.76 8.60L55.76 8.60Q56.41 9.17 57.21 9.49L57.21 9.49L57.21 9.49Q58.02 9.81 58.84 9.81L58.84 9.81L58.84 9.81Q59.30 9.81 59.72 9.72L59.72 9.72L59.72 9.72Q60.13 9.62 60.45 9.41L60.45 9.41L60.45 9.41Q60.76 9.21 60.94 8.89L60.94 8.89L60.94 8.89Q61.12 8.57 61.12 8.12L61.12 8.12L61.12 8.12Q61.14 7.63 60.90 7.28L60.90 7.28L60.90 7.28Q60.66 6.93 60.28 6.67L60.28 6.67L60.28 6.67Q59.91 6.41 59.43 6.22L59.43 6.22L59.43 6.22Q58.95 6.03 58.49 5.88L58.49 5.88L58.49 5.88Q57.99 5.71 57.51 5.46L57.51 5.46L57.51 5.46Q57.02 5.21 56.64 4.87L56.64 4.87L56.64 4.87Q56.27 4.54 56.03 4.10L56.03 4.10L56.03 4.10Q55.80 3.67 55.80 3.14L55.80 3.14L55.80 3.14Q55.80 2.45 56.07 1.95L56.07 1.95L56.07 1.95Q56.34 1.46 56.77 1.14L56.77 1.14L56.77 1.14Q57.20 0.83 57.77 0.68L57.77 0.68L57.77 0.68Q58.34 0.53 58.93 0.53L58.93 0.53L58.93 0.53Q59.67 0.53 60.37 0.73L60.37 0.73L60.37 0.73Q61.07 0.94 61.61 1.30L61.61 1.30Z"></path></g><defs data-v-423bf9ae=""><linearGradient data-v-423bf9ae="" gradientTransform="rotate(25)" id="02352ffe-4ef4-4dcf-9af8-5f6a706577e6" x1="0%" y1="0%" x2="100%" y2="0%"><stop data-v-423bf9ae="" offset="0%" style="stop-color: rgb(8, 199, 214); stop-opacity: 1;"></stop><stop data-v-423bf9ae="" offset="100%" style="stop-color: rgb(2, 2, 62); stop-opacity: 1;"></stop></linearGradient></defs><g data-v-423bf9ae="" id="5adc7726-a8fb-4833-9460-5569a33b77d0" transform="matrix(1.4215313714122586,0,0,1.4215313714122586,-31.476129399868483,-25.732571419297955)" stroke="none" fill="url(#02352ffe-4ef4-4dcf-9af8-5f6a706577e6)"><path d="M49.961 81.656l27.416-15.828V34.171L49.961 18.344 22.545 34.171v31.657l27.416 15.828zM27.429 64.029l9.886-5.582 12.653 7.304 12.627-7.288 9.771 5.641-22.405 12.933-22.532-13.008zM49.968 37.71l9.762 5.637-9.625 5.54-9.749-5.626 9.612-5.551zm-10.643 7.266l9.636 5.562v11.169l-9.636-5.562V44.976zm11.636 5.725l9.649-5.553v10.995l-9.649 5.57V50.701zm22.416 11.676l-9.767-5.639V42.123l-12.566-7.256V23.588L73.377 36.48v25.897zM49.045 23.492v11.286l-12.72 7.345v14.585l-9.78 5.522V36.48l22.5-12.988z"></path></g><!----></svg>